<?xml version="1.0" encoding="utf-8"?>
<!-- Generator: Adobe Illustrator 27.0.0, SVG Export Plug-In . SVG Version: 6.00 Build 0)  -->
<svg version="1.1" id="Layer_1" xmlns="http://www.w3.org/2000/svg" xmlns:xlink="http://www.w3.org/1999/xlink" x="0px" y="0px"
	 viewBox="0 0 561.1 154.9" style="enable-background:new 0 0 561.1 154.9;" xml:space="preserve">
<style type="text/css">
	.st0{fill:#4076B7;}
	.st1{fill:#4E9CD3;}
	.st2{fill:#30509B;}
	.st3{fill:#4989C6;}
	.st4{fill:#3965A9;}
</style>
<path class="st0" d="M370.5,133.9c-7.6,6-20.7,5.2-29.2-1c-1.8-1.3-3.9-4-5.4-3.7c-1.7,0.3-2.9,3.2-4.3,5.1
	c-5.6,7.3-12,13.6-20.6,17.5c-11.9,5.4-32.7,4.2-41.2-9.5c-1.6-2.5-2.8-1.9-4.6-0.2c-6,6-13.1,10.2-21.5,11.8
	c-9.2,1.7-18.3,1.5-26.1-4.4c-3.1-2.3-5.3-5.7-7.9-8.6c0-0.8,0.2-1.8-0.1-2.5c-3.6-8.3-1.1-16.5-0.2-24.8c0.2-2.1,2.2-4.6,0-6.8
	c1.8-9.5,3.5-18.9,5.3-28.4c0.7-4.1,1.2-8.2,2-12.3c0.9-4.6,2.4-5.8,7.1-5.9c5.2-0.1,10.3-0.1,15.5,0c4.4,0.1,5.6,1.6,4.9,6
	c-2.4,15.3-4.8,30.5-7.1,45.8c-0.5,3.8-0.8,7.6-0.6,11.4c0.4,8.2,6.3,9.3,12.3,6.9c4.5-1.9,7.5-5.4,9.8-9.5
	c3.7-6.4,6.3-13.1,7.3-20.5c1.5-10.9,3.2-21.7,4.8-32.5c1-6.6,2.1-7.5,8.7-7.5c4.3,0,8.7,0,13,0c5.9,0,7.1,1.4,6.2,7.1
	c-2.2,14.4-4.8,28.9-6.7,43.3c-0.6,4.7-0.4,9.6,0.4,14.3c0.8,4.8,3.7,6.6,8.6,6.4c6.5-0.2,10.7-4.2,14.2-9c2.1-2.9,3.6-6.3,5.3-9.5
	c1.3-2.5,1.3-4.9,0.5-7.7c-2.7-9.7-3.9-19.7-1.4-29.5c1-4,3-8.3,5.8-11.3c7-7.6,19.1-4.4,22.8,5.9c2.3,6.4,2.6,13,1.4,19.7
	c-0.7,4.1-1.6,8.1-2.5,12.2c-1.3,5.8,1.9,12.5,7.2,15c4,1.8,7.4,0.1,10.9-1.6c1.1,4,2.1,8.1,3.3,12.1
	C369.1,129.6,369.8,131.8,370.5,133.9L370.5,133.9z"/>
<path class="st1" d="M456.6,105.9c1.3-6.3,2.8-12.6,3.8-18.9c2.7-16.3,5.3-32.7,7.9-49c1.7-10.6,3.2-21.3,5-31.9c0.9-5.3,2-6,7.3-6
	c5,0,10-0.1,15,0c4.9,0.1,5.8,1.3,5,6.1c-3.4,21.4-6.8,42.8-10.2,64.3c0,0.3,0.1,0.6,0.1,0.4c5.6-3.4,11.1-7.5,17.2-10.3
	c13.7-6.2,26.5-3.9,38.2,5.5c10.4,8.3,15.8,19.3,15.1,32.5c-0.9,18.5-6.6,35.2-22,47c-12,9.2-25.6,11.2-40.1,7.6
	c-3.3-0.8-6.6-2.2-9.7-3.8c-3.6-1.9-4.1-3.5-2.6-7.3c0.8-2,1.9-3.9,2.7-5.9c2.6-6.7,3.5-7.3,10.3-5.2c7.4,2.3,13.8,0.2,19.3-4.8
	c4.6-4.1,7.3-9.4,8.8-15.3c1.7-6.5,2.6-13,0.8-19.6c-1.6-5.9-5-8.4-11.1-8.8c-7.1-0.5-12.9,2-18.1,6.8c-8.7,8-13.2,18.3-15.7,29.4
	c-2.1,9-3.2,18.3-4.9,27.4c-0.9,5-2.2,6.1-7.3,6.3c-5.2,0.2-10.3,0.1-15.5,0c-3.4-0.1-5-2.2-4.8-5.5c0.1-2.1,0.3-4.3,0.4-6.5
	c1.7-9.4,3.4-18.7,4.9-28.1C456.8,110.3,456.6,108.1,456.6,105.9L456.6,105.9z"/>
<path class="st2" d="M138.7,113.8c-3.7,11.9-9.6,22.6-18.9,31c-8.9,8-19.4,11.4-31.4,9.1c-9.2-1.7-15.5-7.2-19.1-16.3
	c-1.7,1.6-3.2,3.3-4.8,4.8c-11.2,10-24.3,14.3-39.2,11.1c-11.6-2.5-18.6-10.4-22.5-21.1c-3.8-10.5-3.4-21.2-0.4-31.8
	c4.2-14.7,12.1-27,25.3-35.2c14.8-9.3,30.2-11.8,45.8-1.4c1.9,1.2,2.9,1.5,3.9-1c0.9-2.2,3.1-2.8,5.4-2.8c4.7,0,9.3,0,14,0
	c6.8,0,7.9,1.3,6.8,8c-1.3,8.5-2.8,17.1-4.1,25.6c-1.1,7.1-2.3,14.1-3.2,21.2c-0.4,3.3-0.6,6.7-0.2,9.9c0.8,6.3,5.3,8.3,10.8,5.1
	c4.5-2.6,7.3-6.7,9.8-11.1c1.9-3.3,3.5-6.8,5.2-10.2c2.1,0.8,4.3,1.6,6.5,2.2C131.8,112.2,134.8,114.5,138.7,113.8L138.7,113.8z
	 M29.5,114.7c0,2.6-0.2,6.8,1.7,10.4c3.3,6.1,9.8,8.1,16,6c4.6-1.6,8.5-4.3,11.7-8.1c7.6-9.3,11.1-20.2,13.6-31.7
	c0.5-2.2-0.3-3.7-1.9-5.2c-5.3-5-14-6.4-21.4-3C36.1,89,31.6,100.7,29.5,114.7L29.5,114.7z"/>
<path class="st3" d="M456.6,105.9c0,2.2,0.2,4.4-0.2,6.5c-1.5,9.4-3.2,18.7-4.9,28.1c-17.5,13.4-36.6,18.3-57.9,11.1
	c-8-2.7-14.7-7.6-19.6-14.6c-0.8-1.2-2.3-2-3.5-3c-0.7-2.1-1.4-4.3-2-6.4c-1.1-4-2.2-8.1-3.3-12.1c1.2-6.8,1.5-13.9,3.6-20.5
	c4.4-13.4,13.3-23.5,25.8-30.4c6.8-3.7,13.9-6.4,21.6-7c11.4-0.9,21.8,1.3,29.7,10.5c6.7,7.8,7,16.5,3.8,25.6
	c-2.8,8-8.5,13.9-15.7,18.1c-9,5.3-18.7,8.5-29.2,9.1c-1.9,0.1-3.7,1-5.5,1.5c1.3,1.6,2.4,3.6,4.1,4.7c8,5.3,16.6,4.8,25.4,2.3
	c11.8-3.3,20.3-10.8,26.2-21.4C455.5,107.2,456.1,106.6,456.6,105.9L456.6,105.9z M427.1,87c-0.3-0.7-0.8-2.4-1.9-3.8
	c-2.3-2.9-5.5-2.5-8.7-1.8c-8,1.9-18,11.8-20,23.3c-0.3,1.7-0.2,2.7,2.3,2.5c7.3-0.7,13.9-3.3,19.8-7.4
	C422.7,97.1,426.4,93.6,427.1,87L427.1,87z"/>
<path class="st4" d="M138.7,113.8c-3.9,0.7-6.9-1.6-10.3-2.7c-2.2-0.7-4.3-1.5-6.5-2.2c1.8-7.7,4-15.4,5.3-23.2
	c1.4-8.7,1.5-17.4-1.1-26.1c-1.8-6-1.6-12.2,3.6-17.1c6.6-6.1,16.3-3.6,19.1,5c0,0.2,0.1,0.3,0.1,0.5c-0.3,8.4,6.3,10.3,12.1,12.8
	c6.7,2.9,13.5,5.3,20.2,8.2c7.4,3.1,9.2,6.6,7.4,14.5c-2.4,10.2-5.3,20.2-7.8,30.4c-0.8,3.4-1.3,6.9-1.2,10.3c0.1,5.6,3.4,8,9,7
	c6.1-1.1,9.7-5.6,12.9-10.3c3-4.5,5.3-9.4,7.9-14.2c2.1,2.2,0.2,4.7,0,6.8c-0.9,8.3-3.4,16.5,0.2,24.8c0.3,0.7,0.1,1.6,0.1,2.5
	c-10.6,11.6-23.3,16.9-38.9,12.1c-14.1-4.4-22.6-18.7-19.6-33.3c1.9-9.1,4.6-18,6.9-27c2.7-10.8,3.4-10.6-8.1-15.8
	c-2.2-1-3.3-0.8-3.8,2.1c-1.6,9.6-3.6,19.2-5.5,28.8C140.2,109.9,139.3,111.8,138.7,113.8L138.7,113.8z"/>
</svg>
