<svg xmlns="http://www.w3.org/2000/svg" id="Layer_1" data-name="Layer 1" viewBox="142.84 206.26 561.1 154.92">
  <defs>
    <style>
      .cls-1 {
        fill: #4076b7;
      }

      .cls-2 {
        fill: #30509b;
      }

      .cls-3 {
        fill: #3965a9;
      }

      .cls-4 {
        fill: #4989c6;
      }

      .cls-5 {
        fill: #4e9cd3;
      }
    </style>
  </defs>
  <path class="cls-1" d="M513.38,340.16c-7.64,6.05-20.67,5.18-29.25-1-1.84-1.33-3.87-3.98-5.42-3.72-1.67,.28-2.92,3.25-4.32,5.07-5.6,7.33-11.97,13.61-20.6,17.52-11.85,5.36-32.7,4.18-41.19-9.52-1.56-2.51-2.83-1.89-4.57-.17-6.02,5.96-13.06,10.25-21.47,11.81-9.2,1.72-18.31,1.5-26.13-4.4-3.07-2.31-5.3-5.72-7.92-8.63-.01-.83,.22-1.77-.08-2.48-3.6-8.27-1.14-16.5-.2-24.81,.24-2.14,2.18-4.59,.05-6.84,1.76-9.46,3.55-18.91,5.26-28.38,.74-4.09,1.2-8.22,1.97-12.3,.87-4.59,2.39-5.82,7.14-5.88,5.16-.07,10.32-.1,15.48,.02,4.42,.1,5.61,1.6,4.93,5.99-2.35,15.26-4.83,30.51-7.09,45.79-.55,3.76-.75,7.62-.58,11.42,.37,8.24,6.33,9.31,12.29,6.85,4.47-1.85,7.45-5.44,9.83-9.52,3.71-6.37,6.31-13.12,7.33-20.49,1.5-10.86,3.16-21.69,4.81-32.53,1.01-6.59,2.15-7.54,8.67-7.55,4.33,0,8.66-.02,12.98,0,5.92,.04,7.13,1.4,6.24,7.11-2.25,14.44-4.75,28.85-6.7,43.33-.63,4.68-.35,9.64,.41,14.32,.79,4.84,3.71,6.58,8.61,6.4,6.46-.23,10.71-4.24,14.22-8.98,2.15-2.9,3.63-6.3,5.29-9.53,1.26-2.45,1.28-4.92,.5-7.69-2.71-9.71-3.88-19.67-1.36-29.54,1.03-4.03,3.03-8.29,5.82-11.31,7.04-7.64,19.12-4.35,22.79,5.91,2.28,6.37,2.56,13.01,1.42,19.66-.7,4.09-1.6,8.14-2.52,12.19-1.31,5.78,1.88,12.55,7.2,14.95,3.95,1.78,7.43,.11,10.88-1.64,1.09,4.04,2.14,8.09,3.27,12.12,.6,2.16,1.31,4.3,1.97,6.44Z"/>
  <path class="cls-5" d="M599.43,312.19c1.28-6.31,2.75-12.58,3.81-18.93,2.74-16.33,5.31-32.69,7.91-49.04,1.69-10.63,3.22-21.28,5.05-31.89,.91-5.3,2.01-6,7.34-6.03,5-.03,9.99-.07,14.99,.01,4.87,.08,5.78,1.28,5.02,6.1-3.4,21.42-6.8,42.84-10.18,64.27-.05,.3,.14,.63,.08,.38,5.61-3.41,11.07-7.52,17.16-10.26,13.67-6.16,26.55-3.85,38.16,5.48,10.37,8.33,15.76,19.33,15.11,32.54-.91,18.54-6.64,35.22-22.04,47.05-12.01,9.22-25.6,11.25-40.1,7.59-3.34-.84-6.62-2.21-9.68-3.8-3.6-1.87-4.06-3.54-2.62-7.31,.77-2.01,1.91-3.88,2.69-5.89,2.63-6.73,3.53-7.29,10.28-5.19,7.44,2.32,13.75,.25,19.29-4.76,4.56-4.13,7.26-9.35,8.82-15.3,1.71-6.52,2.61-13.01,.77-19.62-1.64-5.9-5.01-8.37-11.13-8.79-7.1-.49-12.91,2.02-18.05,6.78-8.65,8.01-13.15,18.3-15.73,29.42-2.09,9.02-3.19,18.26-4.88,27.37-.92,4.95-2.24,6.11-7.29,6.32-5.15,.21-10.32,.15-15.48,.01-3.38-.09-5.04-2.17-4.81-5.51,.14-2.15,.29-4.3,.44-6.45,1.65-9.36,3.36-18.7,4.9-28.07,.35-2.11,.14-4.31,.18-6.47Z"/>
  <path class="cls-2" d="M281.51,320.1c-3.71,11.92-9.56,22.59-18.93,31.01-8.93,8.01-19.38,11.4-31.36,9.14-9.24-1.74-15.47-7.16-19.12-16.3-1.66,1.65-3.17,3.32-4.84,4.81-11.24,10.05-24.27,14.3-39.16,11.14-11.59-2.46-18.56-10.35-22.49-21.15-3.84-10.55-3.43-21.25-.39-31.84,4.21-14.68,12.15-26.99,25.26-35.18,14.84-9.27,30.24-11.75,45.81-1.37,1.85,1.24,2.95,1.51,3.95-1.03,.87-2.2,3.05-2.84,5.41-2.82,4.66,.05,9.32,0,13.98,.02,6.8,.02,7.89,1.27,6.84,8.04-1.33,8.54-2.76,17.06-4.11,25.59-1.12,7.06-2.3,14.1-3.2,21.19-.42,3.28-.63,6.68-.22,9.94,.79,6.29,5.34,8.3,10.83,5.12,4.48-2.6,7.33-6.69,9.76-11.07,1.85-3.34,3.49-6.79,5.23-10.19,2.15,.75,4.28,1.56,6.46,2.24,3.39,1.07,6.45,3.38,10.3,2.72Zm-109.15,.9c.68,2.62,1.19,6.28,2.56,9.57,2.57,6.16,8.91,8.95,15.18,6.77,4.58-1.59,8.51-4.26,11.67-8.14,7.55-9.3,11.12-20.22,13.58-31.67,.48-2.25-.29-3.74-1.86-5.25-5.26-5.03-14.01-6.36-21.42-2.99-13.17,5.98-17.93,17.29-19.71,31.72Z"/>
  <path class="cls-4" d="M599.43,312.19c-.05,2.16,.17,4.36-.18,6.47-1.55,9.37-3.25,18.72-4.9,28.07-17.45,13.35-36.58,18.33-57.9,11.08-8-2.72-14.68-7.57-19.6-14.65-.85-1.22-2.3-2.02-3.47-3.01-.66-2.15-1.37-4.28-1.97-6.44-1.12-4.03-2.18-8.08-3.27-12.12,1.16-6.84,1.51-13.94,3.65-20.46,4.4-13.43,13.32-23.51,25.76-30.37,6.75-3.72,13.92-6.38,21.6-6.99,11.36-.9,21.81,1.32,29.71,10.48,6.69,7.75,7.01,16.5,3.78,25.63-2.83,8-8.47,13.87-15.66,18.09-8.97,5.27-18.65,8.52-29.15,9.14-1.87,.11-3.69,.96-5.53,1.47,1.35,1.59,2.42,3.59,4.09,4.69,7.99,5.28,16.63,4.75,25.38,2.29,11.83-3.33,20.33-10.75,26.21-21.38,.39-.71,.95-1.33,1.44-1.99Zm-29.44-18.96c-.32-.66-.82-2.44-1.89-3.76-2.31-2.89-5.51-2.54-8.69-1.78-8.01,1.93-18.04,11.81-20.05,23.34-.29,1.66-.16,2.7,2.3,2.45,7.29-.74,13.92-3.28,19.81-7.35,4.05-2.8,7.82-6.28,8.51-12.89Z"/>
  <path class="cls-3" d="M281.51,320.1c-3.85,.66-6.91-1.65-10.3-2.72-2.17-.69-4.3-1.49-6.46-2.24,1.82-7.72,4.05-15.36,5.34-23.17,1.43-8.68,1.55-17.37-1.07-26.08-1.8-5.99-1.64-12.25,3.57-17.07,6.64-6.15,16.34-3.59,19.09,5.01,.05,.16,.15,.32,.14,.48-.31,8.38,6.31,10.28,12.13,12.76,6.69,2.85,13.53,5.33,20.22,8.17,7.39,3.14,9.23,6.6,7.35,14.52-2.41,10.16-5.31,20.21-7.77,30.37-.81,3.35-1.31,6.89-1.22,10.32,.14,5.62,3.42,7.99,9.01,7,6.11-1.08,9.7-5.65,12.86-10.27,3.05-4.45,5.29-9.44,7.89-14.19,2.13,2.25,.19,4.7-.05,6.84-.94,8.31-3.4,16.53,.2,24.81,.31,.7,.07,1.65,.08,2.48-10.62,11.58-23.3,16.93-38.89,12.11-14.1-4.36-22.57-18.73-19.56-33.28,1.88-9.09,4.64-17.99,6.89-27,2.7-10.78,3.37-10.65-8.11-15.8-2.23-1-3.31-.77-3.81,2.12-1.64,9.64-3.6,19.23-5.55,28.81-.42,2.06-1.31,4.02-1.99,6.02Z"/>
</svg>